/* XPM */
static char *bafcdb09bb5a4e12f1f5defc1e06d369jFR5E5CKbYlqSVat[] = {
/* columns rows colors chars-per-pixel */
"64 64 246 2 ",
"   c None",
".  c #000104",
"X  c #000319",
"o  c #001717",
"O  c #180C0B",
"+  c #3A0000",
"@  c #360403",
"#  c #281816",
"$  c #3C1C15",
"%  c #361B17",
"&  c #2C080D",
"*  c #38231D",
"=  c #29211A",
"-  c #040D34",
";  c #3B2923",
":  c #2E2520",
">  c #0C2B36",
",  c #440001",
"<  c #4D0002",
"1  c #48090E",
"2  c #570203",
"3  c #481509",
"4  c #561409",
"5  c #461D16",
"6  c #501D15",
"7  c #611601",
"8  c #6E0F0C",
"9  c #49251B",
"0  c #58271A",
"q  c #78270B",
"w  c #6B2512",
"e  c #642C1C",
"r  c #6C2B1C",
"t  c #622618",
"y  c #772B1E",
"u  c #6B331C",
"i  c #7B331E",
"p  c #75341C",
"a  c #62210A",
"s  c #551B20",
"d  c #482A23",
"f  c #542C22",
"g  c #592C24",
"h  c #4A3529",
"j  c #593429",
"k  c #5D3431",
"l  c #652824",
"z  c #6D3322",
"x  c #66382A",
"c  c #743423",
"v  c #7A3827",
"b  c #72342E",
"n  c #574537",
"m  c #79422A",
"M  c #6B4637",
"N  c #764636",
"B  c #664E34",
"V  c #020A50",
"C  c #192946",
"Z  c #0B365C",
"A  c #2D3655",
"S  c #06397C",
"D  c #143373",
"F  c #2D3169",
"G  c #001C61",
"H  c #603849",
"J  c #344051",
"K  c #2A486F",
"L  c #0D527C",
"P  c #524D4F",
"I  c #6D5D46",
"U  c #7A5846",
"Y  c #6F4F49",
"T  c #78664B",
"R  c #7D6659",
"E  c #707456",
"W  c #4D4F70",
"Q  c #695E66",
"!  c #5F706F",
"~  c #797274",
"^  c #70726F",
"/  c #8A0D07",
"(  c #B40504",
")  c #A50000",
"_  c #8B2700",
"`  c #872418",
"'  c #86381E",
"]  c #983816",
"[  c #962A10",
"{  c #AC221A",
"}  c #BA221B",
"|  c #A53E1A",
" . c #A52F00",
".. c #8C2E24",
"X. c #962D25",
"o. c #8C3B22",
"O. c #863825",
"+. c #963C22",
"@. c #9B3D25",
"#. c #853C37",
"$. c #A23E22",
"%. c #AF2921",
"&. c #D10B0B",
"*. c #E00000",
"=. c #C2231C",
"-. c #D2312A",
";. c #E73432",
":. c #914011",
">. c #A6421F",
",. c #B5491A",
"<. c #B3500F",
"1. c #B7650F",
"2. c #8B442B",
"3. c #994529",
"4. c #864A38",
"5. c #954834",
"6. c #89553E",
"7. c #95533B",
"8. c #985A27",
"9. c #A44223",
"0. c #A84829",
"q. c #B64B27",
"w. c #BB5825",
"e. c #AD5237",
"r. c #B66823",
"t. c #BC7724",
"y. c #D8591D",
"u. c #CC510B",
"i. c #D8710E",
"p. c #E9691B",
"a. c #E8761C",
"s. c #F5790B",
"d. c #C65B23",
"f. c #C05132",
"g. c #D76627",
"h. c #CD6E2B",
"j. c #E97822",
"k. c #F16E25",
"l. c #E65D00",
"z. c #865845",
"x. c #975A46",
"c. c #8E554A",
"v. c #AD5C49",
"b. c #87624E",
"n. c #98634C",
"m. c #8B6755",
"M. c #9A6A55",
"N. c #8B7A5C",
"B. c #877357",
"V. c #94745C",
"C. c #A5654C",
"Z. c #A66A55",
"A. c #A97257",
"S. c #B6755B",
"D. c #B56C4E",
"F. c #8B7A68",
"G. c #9B7A67",
"H. c #897B71",
"J. c #91736C",
"K. c #A57963",
"L. c #B47C64",
"P. c #C85649",
"I. c #C8704C",
"U. c #F67E4B",
"Y. c #DA8700",
"T. c #D78A1D",
"R. c #D88D12",
"E. c #E78A1A",
"W. c #E59814",
"Q. c #F49916",
"!. c #EA970C",
"~. c #EDA20A",
"^. c #F3AC03",
"/. c #F3A705",
"(. c #F6B201",
"). c #F4AB14",
"_. c #D98524",
"`. c #CE8723",
"'. c #ED8E24",
"]. c #F8A932",
"[. c #988265",
"{. c #8D8976",
"}. c #A6886C",
"|. c #B68268",
" X c #A78875",
".X c #B78974",
"XX c #A89379",
"oX c #B99D7F",
"OX c #E49359",
"+X c #EDA452",
"@X c #C58D6A",
"#X c #CF9172",
"$X c #E89870",
"%X c #DB8048",
"&X c #0A3E81",
"*X c #1C5685",
"=X c #0D5091",
"-X c #2B548E",
";X c #166498",
":X c #246698",
">X c #195DA3",
",X c #005BA6",
"<X c #1765A7",
"1X c #1977B4",
"2X c #0F72AF",
"3X c #256CB0",
"4X c #526A99",
"5X c #71718A",
"6X c #5375AA",
"7X c #6178A6",
"8X c #1379C2",
"9X c #887F86",
"0X c #0C82BB",
"qX c #6F87AE",
"wX c #0789C5",
"eX c #1091CD",
"rX c #248BCE",
"tX c #999694",
"yX c #8E8C8B",
"uX c #B79B84",
"iX c #A89899",
"pX c #B29F91",
"aX c #AAA48B",
"sX c #B6A48B",
"dX c #B5AA98",
"fX c #9293AB",
"gX c #A8A4A6",
"hX c #B6B4B9",
"jX c #C49986",
"kX c #D89F80",
"lX c #C9A48C",
"zX c #CBAB97",
"xX c #C5B498",
"cX c #DBB29E",
"vX c #E3AD8C",
"bX c #D5B9A4",
"nX c #D5C4A8",
"mX c #EACCB6",
"MX c #E7D3B1",
"NX c #A5B2C6",
"BX c #C5BFC0",
"VX c #C6C4C5",
"CX c #D6D6D1",
"ZX c #E9DBCA",
"AX c #F0E5D6",
"SX c #EEEEE3",
/* pixels */
"                                                                                                                                ",
"                                                                                                                                ",
"                                                                                @.                                              ",
"                                                                                @.                                              ",
"                                                                              q.$.0                                             ",
"                                                      '.    f j x m     o.  0.@.i 0                                             ",
"                                                    d.k.j.p o 9 X % x   9.  f.O.6 e +.                                          ",
"                                              VX    >.i a.d.      m d   @.c 3.6 5 t 0                                           ",
"                                            tXVXyXS.] y g.u.u.OX$Xw.# v y 0 6 $ 5 6                                             ",
"                                            P . o Y b y u.I.mXAXAXpX, r 5 # # $ $ r 0.0.9.                                      ",
"                              y.k.k.        P . . * 2.:.@XAXSXZXMXpX_ w t 0 5 & % t v +.                                        ",
"                              q.>.q.          U ; X 1.E.mXCXaXE tXI.u.0.5.3.3.c 0 9                                             ",
"                            m.N N j           vXx.5 x <.+X$X{.! S.<.c d ; d d f f 9                                             ",
"                      w.<.Z.z.@ %             kXA.m n.c. .s.+XOXu.& X 0 e & & # % = 0 y.a.j.j.a.p.a.a.                          ",
"                  G.U t Y m.b.U z.y.            |.v Z.S.C.` i.].].g.,.9.d.d.v r 9 9 i 9.3.' ' i i ' :.d.h.I.                    ",
"                b.M _ 5.M.K..XlX|.D.q.y.      U.#Xc.4.C.S.A...,._.Q.Q.E.i.!.E.w.e u r $ $ 5 9 9 a i 4.Z.                        ",
"              N ; q O.N K.K.U U N h 6.p.y.p.s.k.$X|.5.4.x.S.S.C.5.0.w.h.I.D.,.<.o.z 0 0 e z q ] e.D.                            ",
"                  * k v n..X6.& % * z w.0.] l.$XzXiXdX7.4.7.C.S.S.S.S.S.L.#XjXN ' n.e q ] [ 7.S.                                ",
"                    j n.4.j j f * 9 i y g a | vXzXhXCXgXH.m.N b N N N j # . Z..X7 A.z.N c.M.                                    ",
"                      M M * o * c +.' $ 9 t _ vXbXtXVXBXVXgX9X^ Q P P J > g A.}.3 S.                                            ",
"                        % 9 g o.]     r e d _ OXmXzXH.tXgXyXyX5X! Q P Y M..X[.: $ M                                             ",
"                                        v s r.^.+XcXcXjX XJ.J.m.m.n.Z.L.G.P O t O.` v c                                         ",
"                                            T.).^.Y.|.jXlXjX@XL.S.A.m.n + 7 o.9.,.g.g.0.c m                                     ",
"                                            W.^.).).Y.1.:.u g g j d 7 q o.3.>.>.g.k.q.x.+.c M.                                  ",
"                                            Q.(.^./.Q.'.`.r.8.m u i o.o.o.o.i i d.u.j x.0.] 2.M.                                ",
"                                            Q.^.^.^./.!.R.`.r.8.2.' ' i p e e 0 4.4.f M 7.| q.[ x.@X                            ",
"                                            Q.^.(.(.^.~.W.T.t.8.] ' p e 9 # X O x z.d h b.w ] q.] O.A.                          ",
"                                            E./.(.^./.~.W.`.r.@.O.z 6 $ u ,.w.4.G.jX Xz.M b.N q 3.$._ x.L.                      ",
"                                            a.~././.~.W.T.r.@.o.t 3 x x w.p.g.4.K.lX.XC.m M M N ,.p.p.u.| A.#X                  ",
"                                            g.Q.!.!.E.T.r.9.+.r N A.    O.i v d f 0 3 l b j < m.#Xy.u.d.9.8 x.                  ",
"                                            d.'.W.E.T.h.0.+.t z.          o.u j O k z.x.N j w x K.5.q z e 0 2.#X                ",
"                                              j._._._.h.0.7 M.            +.' v d N m.U j ; 5 f A.5.w c c c C.                  ",
"                                              i.i.Y.Y.r.` N @X              +.x * * f $ # * . : A.                              ",
"                                              Z.I.I.D.7.< 6.                9.5.; k M d # *                                     ",
"                                              NXqX-X&X*XD P                       # #                                           ",
"                                            NXfX5XfX7X,XS F 5X                                                                  ",
"                                            qX4XqXfX-X>XS W                                                                     ",
"                                        2X8X6X4X6X7X,X:XG F                                                                     ",
"                                      1X8X=XS &X=X,X1X1X*XV 5X                                                                  ",
"                                    rXrX,XD C A   D >X1X>XG F fX                                                                ",
"                                    <X>XD V F       &X<X<X*XV W fX                                                              ",
"                                    wX2X;X*XZ W       >X3X=XF G K 9X                                                            ",
"                                      eX2XK C X W       <X;X;X:X=XJ ~ iX                                                        ",
"                                      1X1X:XL C $       1XwXwX2X-X- . A ^ iX                                                    ",
"                                          F H l z v       1XwX0X2X:XK C - A                                                     ",
"                              *.cXzXlXnX@XMX|.v + 4 n.      :X0X2X2X*XZ K                                                       ",
"                            &.I.dXb.xXG.uXsXK.aX9 4 , C.      :X<X;X*XA + I H.e.                                                ",
"                          ( ) #.H b R 8 R k g R l 2 < < D.        A   M ^ ! x.{ 6.                                              ",
"                          n.v r w t w c w c z u x M M M M.}.            x.#.` 5 e x.                                            ",
"                           X[.[.}.}.[.[.N.B.B.B.B.B.N.N.N.R               2 8 2 < / e.D.                                        ",
"                                                                            XXG.F.M.n.L.L.                                      ",
"                                                                      aXaXdXxXbXxXxXsXsXuXM.                                    ",
"                                                                  M.v.P.P.e.e.v.V.XXXXI ^ H.7.                                  ",
"                                                                  ( &.;.;.&.&.( / z H.~ Q l p n.                                ",
"                                                                } %.-.;.;.-.=.%.X.` l k 2 4 1 U                                 ",
"                                                                } %.{ } =.} { { ` y a 4 f < 9 T B                               ",
"                                                                ) / ..X.X.....i y t 6 1 + @ I T h                               ",
"                                                              nX X1 , , , , , + @ @ $ h B T B.I                                 ",
"                                                                xXsXyX{.H.H.H.F.F.F.N.B.B.B.T n                                 ",
"                                                                [.}.oXlXlXsXuXXX}.K.V.b.T I                                     ",
"                                                                      N.[.[.N.N.R I n                                           ",
"                                                                                                                                ",
"                                                                                                                                ",
"                                                                                                                                "
};
