/* XPM */
static char *ce74b9a4f6954df1b57f6f857a11e0bakVDrVqRyh7oMj9yh[] = {
/* columns rows colors chars-per-pixel */
"64 64 256 2 ",
"   c None",
".  c #000001",
"X  c #02000C",
"o  c #000118",
"O  c #190006",
"+  c #3A0003",
"@  c #240709",
"#  c #061125",
"$  c #34292C",
"%  c #2C002D",
"&  c #5C0505",
"*  c #710404",
"=  c #543532",
"-  c #6C3C36",
";  c #72342A",
":  c #632F19",
">  c #69443A",
",  c #7B4437",
"<  c #22317B",
"1  c #0F1170",
"2  c #4F2B6B",
"3  c #642B59",
"4  c #674344",
"5  c #77524B",
"6  c #6D5370",
"7  c #654E64",
"8  c #8A0404",
"9  c #9A0102",
"0  c #930F16",
"q  c #AA0302",
"w  c #BC0101",
"e  c #B50305",
"r  c #AC0812",
"t  c #B8151A",
"y  c #B10F15",
"u  c #B01C24",
"i  c #8C312D",
"p  c #B9242B",
"a  c #B22C36",
"s  c #992A18",
"d  c #C80306",
"f  c #D80204",
"g  c #C60713",
"h  c #C51319",
"j  c #D4141A",
"k  c #D80C14",
"l  c #E80506",
"z  c #F40000",
"x  c #FD0001",
"c  c #FA0909",
"v  c #E80F13",
"b  c #F90E11",
"n  c #E8161B",
"m  c #FC1419",
"M  c #F91419",
"N  c #FF1D00",
"B  c #D61C23",
"V  c #D31D2A",
"C  c #FB1B23",
"Z  c #E81725",
"A  c #D4282F",
"S  c #F9242A",
"D  c #FD2C35",
"F  c #E83138",
"G  c #F8323B",
"H  c #EB2930",
"J  c #B1530C",
"K  c #8B4837",
"L  c #974839",
"P  c #9B533A",
"I  c #924A32",
"U  c #A75539",
"Y  c #B35C3C",
"T  c #AF552A",
"R  c #BB613D",
"E  c #BE632E",
"W  c #974505",
"Q  c #CA683A",
"!  c #D36D38",
"~  c #9D2368",
"^  c #CA3742",
"/  c #F83944",
"(  c #EB344D",
")  c #E9316D",
"_  c #DD2C73",
"`  c #9A594B",
"'  c #90524E",
"]  c #AE514A",
"[  c #986655",
"{  c #906754",
"}  c #B96446",
"|  c #A56A58",
" . c #B47555",
".. c #944A73",
"X. c #976C68",
"o. c #8F6A67",
"O. c #AD7B68",
"+. c #BA7B67",
"@. c #A96F70",
"#. c #D44953",
"$. c #F04955",
"%. c #C86943",
"&. c #D67247",
"*. c #C97658",
"=. c #D2744E",
"-. c #CC7866",
";. c #F07074",
":. c #E17B46",
">. c #F7D807",
",. c #FFF100",
"<. c #F0D522",
"1. c #B98B6F",
"2. c #CE8A5B",
"3. c #C8856C",
"4. c #D78567",
"5. c #C78A73",
"6. c #CA9279",
"7. c #D8977B",
"8. c #D5906C",
"9. c #E69778",
"0. c #E49569",
"q. c #CCAF71",
"w. c #FEA77C",
"e. c #EBA272",
"r. c #EC8053",
"t. c #F2DC59",
"y. c #001697",
"u. c #072B93",
"i. c #0D319B",
"p. c #153499",
"a. c #0F2B8B",
"s. c #28388F",
"d. c #0C36A5",
"f. c #1136A3",
"g. c #1238A7",
"h. c #123BAB",
"j. c #1A3CA7",
"k. c #123EB2",
"l. c #003EB0",
"z. c #172AAA",
"x. c #4A2F8C",
"c. c #653993",
"v. c #314490",
"b. c #1541B5",
"n. c #1544BC",
"m. c #1B46B9",
"M. c #1141AB",
"N. c #3649A6",
"B. c #2949B7",
"V. c #3550B5",
"C. c #0067AB",
"Z. c #725197",
"A. c #6D7293",
"S. c #444FB2",
"D. c #6B50A9",
"F. c #6E69AA",
"G. c #4E4782",
"H. c #0039CE",
"J. c #0149CB",
"K. c #1649C3",
"L. c #1A4BC4",
"P. c #194ECA",
"I. c #1648C2",
"U. c #1A51CE",
"Y. c #0258DA",
"T. c #1C55D4",
"R. c #1E59D9",
"E. c #1958D7",
"W. c #004BD2",
"Q. c #2753C9",
"!. c #225CDC",
"~. c #2659D6",
"^. c #3055C8",
"/. c #2861DE",
"(. c #3965D9",
"). c #3C6FC7",
"_. c #065AE7",
"`. c #0165E7",
"'. c #1A62E3",
"]. c #2562E2",
"[. c #2B65E4",
"{. c #2A67EA",
"}. c #3466E4",
"|. c #336FF2",
" X c #235FE0",
".X c #4B68CF",
"XX c #456BE2",
"oX c #555CCE",
"OX c #C7268F",
"+X c #9F6390",
"@X c #C54E8C",
"#X c #E07D83",
"$X c #8F5BC8",
"%X c #7A84A8",
"&X c #65859B",
"*X c #2689C7",
"=X c #6499D3",
"-X c #B6928E",
";X c #989BAB",
":X c #868BAD",
">X c #AB97A8",
",X c #9CA3B1",
"<X c #A4A9B6",
"1X c #B1AFB6",
"2X c #9A9894",
"3X c #D99E82",
"4X c #CC908C",
"5X c #E78C87",
"6X c #D3A88C",
"7X c #E8A788",
"8X c #F7AC88",
"9X c #FCB48D",
"0X c #FBB58B",
"qX c #FEBC92",
"wX c #F7B995",
"eX c #E9B292",
"rX c #D1ADAD",
"tX c #EFAFAB",
"yX c #D7CD8B",
"uX c #FFC295",
"iX c #FEC59A",
"pX c #FFCA9C",
"aX c #F7C59B",
"sX c #FBCBA4",
"dX c #FFD5AA",
"fX c #FFD5A5",
"gX c #FEDAB2",
"hX c #EFC9A4",
"jX c #C6CFAC",
"kX c #B8BAC4",
"lX c #AFB8DC",
"zX c #8AA3D5",
"xX c #BCC1C8",
"cX c #C5C6CB",
"vX c #CBCBD3",
"bX c #DDDBDD",
"nX c #D7D4D8",
"mX c #D5CCD1",
"MX c #E8C6C7",
"NX c #E2D9DA",
"BX c #ECD4CC",
"VX c #E1DEE0",
"CX c #E5E3E3",
"ZX c #EAE5E5",
"AX c #EDEBEA",
"SX c #EAE9E8",
"DX c #F3EDEC",
"FX c #F5E3E1",
"GX c #F6F0EE",
"HX c #F9F1ED",
"JX c #FBF5F2",
"KX c #FEFAF5",
"LX c #FEFDFC",
"PX c #F4F3F3",
"IX c #E5F2F3",
"UX c #C2C8E4",
/* pixels */
"                                                      G / G S S S S G / (                                                       ",
"                                                / D D D x x S c z m x x S S F (                                                 ",
"                                            / D S C M x 5XtXMXDXDXMXtX5Xz l v C F (                                             ",
"                                          / S m m C z tXPXtXf MXBXV 4XIXrXl v k k Z (                                           ",
"                                      $.G m m M S z 5XIXMXf rX^ g rXf rXIX4Xf B k k k F #.                                      ",
"                                    $.D M M M b Z l 5XNXf -.DXBXMXAX4Xd mX4Xf B f k j g F #.                                    ",
"                                  $.D M M b v v v f B rX4XrXbXnXnXmXrX#X>Xp d d d d g h h A #.                                  ",
"                                  / M M v v l l l n l H 5X;.;.;.;.;.;.#XA f j d w w w g h t A                                   ",
"                                / C M v l v n n n j B d d w w w w w w w d B j j j h y e y t u ^                                 ",
"                                / n v n Z B t y s 0 0 i L L L L L L L L i 0 0 s 0 r t u y y t ^                                 ",
"                              $.D v B V y 0 i * + O . X [ +.+.+.+.+.+.[ o . O @ & i 0 0 u u y A ]                               ",
"                              $.H B p 8 i ` [ $ { | | P : +.5.3.3.5.+.: K [ | { $ { ` ; 8 a u p ]                               ",
"                              #.V A 0 : +.3.3.3.3.-X>X>X@.4.7.7.8.7.3.@.>X>X-X5.3.1.3.1.: * u a ]                               ",
"                                #.9 ; K wXqXqX8XBXSXzX*X*XrXqX9X0Xw.4X).*X=XkX;X3.7.6.3X= $ 0 a                                 ",
"                              fXuX7X' I pXpXuXtXKXUXC.2X&X%XpXuX0Xw.Z.&X2XC.lXcX-X7.3X3X= = | 8.7X                              ",
"                            aX8X9.qX| 8 7XpXuXwXKXlXC.y.F.rXsXpXuXqX4XF.y.*XzXxX4Xe.7X6.+ 5 7.5.9.3X                            ",
"                            0Xw.0X9.` * eXfXfXiXBXCXzXrXdXgXgXdXfXsXpXiXrX=XkXrXw.8X8X6.+ 4 3.8.3.7.                            ",
"                              pX8X9.8 1.gX6.X.wXuXdXgXfXdXgXgXdXsXiXiXuXqXwXwXw.e.{ +.9XO.+ +.3.9.                              ",
"                              aXiXuX1.hXwX# % = o.1.sXpXpXpXpXiXuXqXqX9X8XeX1.' $ o o 7.eX| *.8.7.                              ",
"                                iXfXdXdXeX$ # $ $ X 4XpXqXqXqXqX9X0X8X7XeX6.. o # X $ 5.eX7X7.3X                                ",
"                                  0X0XsXqX7X` = # = = 5.8X8X8X7X7X7X3X3X1.$ @ X = ' 5.9.eX3X3X                                  ",
"                                      hXsXqX9X7.' o . . = [ O.O.O.O.[ > . . X 5 6.3X7.7XeX                                      ",
"                                        sXiX9X9X9X7X5.7.[ @ O , 5 O O 5 O.O.1.7.3X3X7XeX                                        ",
"                                          eX7X8X9XqXuXiX9Xe.9.9.7.3.3.7.7.7.3X3X7.3X7X                                          ",
"                                              @.4X7X8X9XqXqX0X7X7X7.7.3X3X3X7.5.@.                                              ",
"                                        G N @Xn.u.6 X.5.3X8X8X8X7X3X7.6.1.X.6 1 y.3 y a                                         ",
"                                    S m C x $X`.(.W.x.9 i ' ` ` ` ` ' i * 1 u.s.M.c.e e t p                                     ",
"                                G m b m c S oX`.}.`.+Xx x z f f d w q 9 9 2 M.f.d.S.u e q w h a                                 ",
"                              S m b m C c _ _.XXXX_.D._ _ ) ) ) ( ) _ ~ ~ x.y.N.N.z.~ q r q e d p                               ",
"                            S c m m b Z z @XjXt.t.,XJ.`.`.`.'./.!.E._. XE.H.,X<.t.6X..q 0 q q e w p                             ",
"                        / C c m m c Z l OXyX,.t.,.q.H.XX}.[.].].'.].R.R.(.H.yX,.<.>.q.~ 9 0 q q e d B ^                         ",
"                      G m b m b c Z f @X`.yX,.>.q..XJ.}.[.[.[.[.].].!.~.~.W.oXq.>.>.1.n.~ 8 0 q q f z m F                       ",
"                    G b b m b l k d ~ XX`.(.:XF.J.J./.{.[.[.[.[.].].!.!.R.Q.J.H.F.A.s.l.B.3 8 0 9 d l z x F                     ",
"                  x x S m b l f g 9 oX{.}.'._.Y./.}.{.[.[.[.[.].].!.!.!.R.R.~.~.J.H.I.B.B.s.* 8 9 f c M S x l                   ",
"                tX;.C x z n f g 9 2 }.}.].[.}.}.[.[.[.[.[.[.].]./.!.!.R.R.R.E.R.~.~.T.P.B.B.2 * r l S z z b ;.tX                ",
"            DXLXLXKXFXtXF f t 0 & N.}./.!.!.!.!.].].].].].]./.!.!.!.R.R.R.R.T.T.T.U.P.L.B.B.s.& e n l F tXFXPXAXAXnX            ",
"          JXLXJXDXDXSXSXmX@.8 :   ^.[.~.~.R.R.!.!.!.!.!.!.!.!.!.R.R.R.T.T.T.U.U.P.L.I.m.B.B.N.  u f 5XFXPXGXDXDXDXGXCX          ",
"        LXLXKXKXGXZXNXmXvX<X3     V.~.Q.T.T.R.R.R.R.R.R.R.R.R.R.T.T.T.U.U.P.P.P.K.K.n.m.B.B.N.    -XZXCXZXHXJXJXJXGXJXPX        ",
"    GXLXJXKXKXJXDXZXVXnX1X:XA.    S.Q.Q.Q.P.P.U.U.U.U.U.U.U.P.P.P.P.P.K.K.K.K.n.n.n.b.b.m.B.N.    cXnXZXGXJXJXKXJXGXDXDXGXZX    ",
"  DXLXKXKXLXKXGXZXCXNXnXvX;X        V.n.m.I.I.I.I.K.K.K.K.I.n.I.n.n.n.n.b.b.k.k.k.h.h.j.j.V.        nXGXGXJXJXKXKXJXDXSXZXKXbX  ",
"  LXKXKXKXKXJXZXVXnXnXnXnXkX        V.L.m.m.b.b.b.k.k.k.k.k.k.k.h.h.h.h.h.h.h.h.h.h.h.j.j.N.        JXDXDXGXGXJXJXJXDXSXZXVXCX  ",
"AXLXJXJXJXJXSXbXcX<X;XcXVXvX%X      ).~.L.n.k.h.h.h.h.h.g.g.g.g.g.g.g.h.h.h.g.g.g.h.h.h.b.N.      bXKXDXnXkXmXSXGXGXDXZXVXbXnXxX",
"ZXPXSXCXZXSXCXnX<XA.;XcXZXvX:X      (.E.R.U.K.n.h.g.f.f.f.f.f.f.f.f.f.f.f.f.f.f.g.g.h.h.h.N.      bXGXCX1XbXmXNXDXSXZXvXxXvXxXkX",
"  nXCXnXnXnXbXbXcXkXnXcXZXvX%X      [.R.!.!.R.R.U.n.h.i.i.p.p.p.j.p.p.i.i.d.f.d.k.n.K.K.n.B.      nXLXbXnXLXHXDXSXCXxX<X1XkX1X  ",
"    vXnXbXvXvXnXnXcX;X;XkX;X      .X{.R.!.!.!.!.R.U.K.b.d.u.a.v.v.a.u.i.i.h.n.U.R.R.R.U.L.L.N.      kXkX,XvXDXGXnX1X,XkXkX1X    ",
"        kXcXkX<X<X                (.]. X!.!.!.!.R.U.L.n.h.u.<     < u.f.I.R.!.!.!.R.T.U.P.K.N.                kX,X,X<X<X        ",
"                                  (.R.!.!.!.!.R.T.U.K.n.d.u.s.    < d.U.R.R.!.!.!.R.R.U.P.I.B.                                  ",
"                                  {.!.!.!.!.!.R.T.P.K.b.f.p.        L.T.R.R.!.!.!.R.R.T.U.K.L.                                  ",
"                                XX{.!.!./.!.!.R.T.P.I.k.i.p.        Q.U.R.R.!.!.!.R.R.T.U.L.L.V.                                ",
"                                (.]./././.!.!.R.T.P.n.h.i.s.        ^.E.R.R.!.!.!.!.R.T.U.P.L.V.                                ",
"                                }.!.!.!.!.!.!.R.U.L.n.h.f.s.        ^.!.T.R.!.!.!.!.!.R.T.P.I.B.                                ",
"                                |.!.!.!.!.!.R.R.P.K.b.d.p.            ~.T.R.R.!.!.!.R.R.T.P.K.Q.                                ",
"                              (.{. X/.!.!.!.R.T.P.n.k.f.s.            Q.T.R.R.!.!.!.!.R.T.T.P.P.V.                              ",
"                              (.].!.!.!.!.R.T.U.P.n.h.f.s.            ^.!.T.R.!.!.!.!.R.T.T.P.L.V.                              ",
"                              |.'.].].!.~.~.Q.P.K.n.g.j.v.              ~.T.R.!.~.~.~.~.!.R.E.Y.~.                              ",
"                            .X^.V.^.Q.T.Y.Y.Y.U.L.n.d.p.                ~.T.R.~.!.`.`.Y.U.L.B.N.N.N.                            ",
"                        3.-.-.Q E T L ' 6 Z.S.J.J.n.g.s.                (.Q.!._.Y.oXZ...' U T E E *.+.+.                        ",
"                      4.r.:.:.&.&.Q Y T W W i 7 x.k.l.h.v.            (.`.Y.U.D...T J J E %.&.&.&.! ! =.+.                      ",
"                    -.&.:.4.9.0.=.%.R U P K , ; : 4 2 G.6             +XZ.Z.' J J U ] } *.4.4.=.&.&.%.Q R |                     ",
"                  +.=.%.=.*.4.4.*.%.Y U P K , - 4 > > 5 6             X.} T U ` ] U Y } -.3.4.*.%.Q R Y U ` o.                  ",
"                  @.} R R } } } } Y U P L K , > 4 4 4 7                 o.' ' ` ` Y Y Y } } } Y Y U U P P ' 6                   ",
"                    | I L U U U U P L K , - = 4 5 5 X.                    5.| [ ' I L U U U U U P L K , ; 5                     ",
"                      O.` K , ; ; ; ; - > 5 ' o.o.[                         0.1.5.*.} P K K ; ; ; - - 4 o.                      ",
"                        e.0.0.8.2.2.2.2. . .                                        e.e.0.8.2.2.2. . .|                         "
};
