/* XPM */
static char *_0e575524b154fcb959a46bf50cd81e1caC4Ip3gFowkTtZS[] = {
/* columns rows colors chars-per-pixel */
"64 128 156 2 ",
"   c #2E2D2B",
".  c #312F2B",
"X  c #34312E",
"o  c #363534",
"O  c #393633",
"+  c #3B3A36",
"@  c #393738",
"#  c #3D3D3A",
"$  c #423D37",
"%  c #413F3C",
"&  c #43423E",
"*  c #48453E",
"=  c #3E3E40",
"-  c #454442",
";  c #494644",
":  c #474843",
">  c #4B4946",
",  c #4D4C4A",
"<  c #504B47",
"1  c #514E4B",
"2  c #53514E",
"3  c #59554F",
"4  c #4F4D50",
"5  c #524F50",
"6  c #555552",
"7  c #595653",
"8  c #565857",
"9  c #5B5956",
"0  c #595758",
"q  c #5D5C5A",
"w  c #625B51",
"e  c #615E5C",
"r  c #5F605B",
"t  c #63615E",
"y  c #6A655E",
"u  c #726A5F",
"i  c #615F60",
"p  c #656462",
"a  c #696663",
"s  c #676863",
"d  c #6B6966",
"f  c #676568",
"g  c #696768",
"h  c #67686C",
"j  c #6D6C6A",
"k  c #716C65",
"l  c #716E6B",
"z  c #6F716D",
"x  c #73716E",
"c  c #79746D",
"v  c #7C786F",
"b  c #6E6E72",
"n  c #716F70",
"m  c #757472",
"M  c #797673",
"N  c #767877",
"B  c #7A7976",
"V  c #757579",
"C  c #797778",
"Z  c #76797A",
"A  c #7D7C7B",
"S  c #817C75",
"D  c #817E7C",
"F  c #7F807C",
"G  c #82817E",
"H  c #7E7F81",
"J  c #817F80",
"K  c #7F8182",
"L  c #858482",
"P  c #898684",
"I  c #878885",
"U  c #8A8986",
"Y  c #868689",
"T  c #898788",
"R  c #87898A",
"E  c #8D8C8A",
"W  c #908C84",
"Q  c #918E8C",
"!  c #8E908D",
"~  c #92918E",
"^  c #98948F",
"/  c #888D90",
"(  c #8A8E91",
")  c #8B8F92",
"_  c #8E8E90",
"`  c #918F90",
"'  c #8D9296",
"]  c #8F9190",
"[  c #909090",
"{  c #919390",
"}  c #929290",
"|  c #949391",
" . c #949293",
".. c #959593",
"X. c #979792",
"o. c #929395",
"O. c #959394",
"+. c #929697",
"@. c gray58",
"#. c #959794",
"$. c #979795",
"%. c #949492",
"&. c #989491",
"*. c #989795",
"=. c #9B9794",
"-. c #999694",
";. c #969895",
":. c #969895",
">. c #999893",
",. c #989896",
"<. c #9C9B97",
"1. c #9E9A97",
"2. c #9A9996",
"3. c #969799",
"4. c #969799",
"5. c #999798",
"6. c #999B98",
"7. c #9A9A98",
"8. c #9A9A9A",
"9. c #9C9B99",
"0. c #9E9A99",
"q. c #9D9D9B",
"w. c #9F9E9C",
"e. c #9D9C9A",
"r. c #A29E9B",
"t. c #A19E9C",
"y. c #A0A09E",
"u. c #A2A19F",
"i. c #A4A09D",
"p. c #A2A19E",
"a. c #A8A39F",
"s. c #9E9DA1",
"d. c #A19FA0",
"f. c #A6A5A1",
"g. c #A6A6A4",
"h. c #A4A3A2",
"j. c #A9A6A3",
"k. c #A9A9A7",
"l. c #AAA9A7",
"z. c #AAA9A6",
"x. c #A8A7AC",
"c. c #ADAEA9",
"v. c #AFAEAC",
"b. c #ADACAA",
"n. c #B1AEAB",
"m. c #B0B0AE",
"M. c #B5B1AE",
"N. c #B4B3AF",
"B. c #B2B1AD",
"V. c #B5B5B3",
"C. c #B5B4B1",
"Z. c #B9B5B2",
"A. c #BDB9B6",
"S. c #BCBAB6",
"D. c #BCBBB9",
"F. c #C2BFB8",
/* pixels */
"- 7 < e U W D d X.@.~ :.@.j L s.,.d q s e M Q 5.( ' / K q 2 w u u u u y w 2 N p C R A A L @.j d 6 b ! R N z L I ~ } E s i *.A o ",
"G d d * - d m C ,.Q @.~ :.j U 6.g.#.t O e l | E ) R Z +.6 6 c S S u u y d t 6 Q M A H m A C 9 @ 8 ] #.#.U s A E | A L s 6 q , 0 ",
"M.r.r.Q 9 6 6 j A ! E A ~ p w.E E c.<.3 l w A | / R R Z u G G ^ S G S S U c M N ` T E C m 6 G t F :.I L A q F :.Y t.L s @ , s n ",
"G =.i.~ q N r 8 8 4.E E L p E U ~ ,.z.B M k 9 D ` o.3., k G F.G k S d W F.=.M e L T R o.d x t F :.E 6.I %.j j k.} g : d s q m n.",
"Q A A B p m E j , 6 Y U p l r.D 9.E } N l Q e P L E q z N.N.>.X.S k k G D r.w.l 0 L } B q B t G Y L U ! ! N N ~ A @ t A T d M L ",
"X.B U N j @.w.8.A , , ~ s 0.Q C Y A U g M c e M <.m q V.~ W W ! S ^ M U r.Q T r.i i ~ A 9 9 P t m I L A R E 6 L - 6 r E V.j B Y ",
"A A F N j I F ! d.*.6 & e 5.J m i H b q n.Q e k i.7 t F L N F p.D e p S P B D G M 1 E q d L D.p d %.F x Y y.t + q | n.Y N A , E ",
"x j L m j A C L } J P 5 i S E P Z R j L P =.c 3 < t M I L I F >.J w d W M G =.C p e ; 7 G :.P P q ! A Y F d m j U n.~ U L U 9 m ",
"F z N s m y.K } E L r s d 1 D Q b H s d.Q G <.S $ k M G r.E m L E s D U M P Q c d x 3 t =.B m Q q K U E d > q j U E B Q Q L p j ",
"C A m z m I ~ F U C s Y f.d < n A p f 3.Q <.=.a.c t y B &.U V U ~ p ~ W S S ^ c s l D G P Q x Q F j ~ m # C E m s m A U E G B M ",
"U G A m A E A J U m t U ~ 9.e $ M f _ n A *.U >.S S e y *.g.U A ~ d ! U J m W e M y M <.B ,.E L C s L - d @.,.d , f.} Y Y G C A ",
"9 C U p L U Y U o.L m C D z.z.d X 6 w.L L Q Y E S d S u P E _ o.t t r x M c D e k c M =.E X.E J ,.6 # 6 E h.D E d j *.E E Q E s ",
"- & % 0 M T } } :.j j L s G c.>.e e Q Q _ ] _ m e k c e M Q D 6 , j & > y k c k k l p d T f.` O.X.j d 6.u.D U i.p m *.T ~ U E 0 ",
"P j 1 g 9 C g.E ! A A 9.M ~ ~ ~ S a J J H H 3.d e c S k x M , - p d p 2 + t x y D x k e C L Y E Y m x b.~ C A 8.j N ~ m 8.6.9 g ",
"v.M.r.E e . A H j p ~ ! x I { k y e w T K Z A 6 9 P j.S 3 o g O.a.E >.^ k & & G =.r.e w L E T E q q Y r.N ~ U 8.E j D ,.P - e s ",
"T d.d.T l q # q N x ! I F G G x u c - n R b H j D r.&.S d d M g.,.~ k.i.B a c S Q n.P g E d.O.A - l s ~ L l | ,.Q q E j % s j | ",
"C J Y J n ` V , - m } A A m Q n g 1.J < m N d q 8.@.E X.G N m A L m 0.Y 9 j B L I E >.9 A t.G - G G t k >.G I U E l % < S J l j.",
"D Y Q J i d.0.D j x E L 6.C L j n J d.y # M q L w.L } E m t t N N R o.L N j t ,.>.F z.~ 2 L q q a.^ F 2 W ~ F ~ S c i J M.` n S ",
"J T n i A T N *.| 9 1 A ,.L n 7 J J J Q 0 # p U Y *.M U E s N U U 3.} K m 9 L U y.>.G z.m - , U G G r y B P C X.i < J F.x.T g m ",
"J V O.g H E m E C.m 7 , m Q M 6 Q W J J L , A Y L m E D 6.A q ,.s.6.( L d L } :.>.>.~ <.E q m t.! G G 9 F ~ A 6 9 U Z.J S &.D s ",
"J V L d ! ! G M D A n 0 1 O.l L r.D T J O.m e E Y m z.<.6.A d A } h.E C j X.X.Y G >.~ G d B 8.Q ! ! 6.z q L q # 9 t.J A L X.A q ",
"J C L m A L ~ N A d m N ; - 9 0._  .` T *.L e j U D W Q p t c j A U } E d - M @.~ ^ ,.m s X.| } X.W G I 6 = , j M Q D Y Y F X.s ",
"Q C E N } ~ T E U m G k.C 1 j ,.C T J T L m j 7 U Q G | y d x B U L U L s e 6 U >.G ! s m } Q D ] I ! { 6 ; V D.g m ` | K ~ w.A ",
"6 6.E q w.E | E m 6 D E r.l e E J J J ` j q V p s D =.t - x x M *.U ~ Y m C , q ~ U t 2 A m *.E q.L F I h A } A L s | X.X.%.%.N ",
"> = & m 8.%.U L m s } L U 9.e j 6._ C C s s d p 6 Y E - t a.r.$ - , - - E *.d 6 S 0.f l l e J ` R A 8.m f 8.A K U i Z A R B L R ",
"A r r j E U A %.G p | T Y v.X.& j 6.Y d 6 E @.U , M s 7 G j.=.e p s l l 8.*.D , 5 J f &.k f u ` Z ] ] 9 ( w.V m _ j j E C U j q ",
"%.A A t % r 6.X.m m U A G L t.C > @.Y m 6 L E ~ B # 6 A Q A =.U 9 D m l *.T Q G e $ k j.J g i  .E E 6 p h.A X.L U U q 5.y.h o 0 ",
"A j M ~ x & p %.j L ! U U L 9.m 9 j 6.j p @.E 9.C q j 6.Q A ~ E s Q B P ~ L L r.l 4 J a.a.` e S u.x 2 A E T w.E Y ` V L s # p ( ",
"l e ^ M.,.c 1 # q ! B j #.h.B q s , j 6 L =.A ~ *.j L ` E Y A h.J S S r.J J J J J i J J J r.n 0 ^ i w d U u.L e O.` f & > n _ s.",
"l s W P X.N.G 8 j ~ E N G o.s j w.p : E =.U =.F *.C } Q } C E U T e l T J J J 5.` J 0.=.D W 0.7 $ e E e N h.X.d M t.V % m d.@.R ",
"S P c G r.r.B.I p s E I N E p F n.=.9 G L ~ 6.| *.9.Y / U K H R J k J J 0.J S J S 0.0.0.J D &.Q 7 W Z.e < =.g.| J s V J 0.R 0.E ",
"M e ^ G G G G B F > m L F F q ~ E f.s w G A Q X.E f.q A L C _ 8.J w &.=.J J J J f 5.O.J &.&.J i e ^ r.U 1 M ^ Q Y > 7 A O.H C E ",
"J J R ` G ^ k a k y > E Q s m ] m } L 6 C E Q Q ^ M e a ` E O.5.1 l 1 G ~ Q Q m s Q Y A =.Q i.q B L L 6.s 6 T L > s 9 e G U L w.",
"Y L 8.| G G x y c ~ e 6 ~ f h.8.K L 3.m p I P 8.P 5 M e E P _ i l S y < =.X.E e g s } | ~ 8.B s X.M U w.E q O.6 q L @.n B E U } ",
"m E ` E G P B s ^ Z.Q 7 : g s._ 4.h.,.! 2 C T U 3 e g e V Y d 6 l 7 c - d f.j e l 6 M *.! B q P v.B U E 8.N q , } B.N s m A U Y ",
"0 ~ E =.E #.d x r.z.k.A 6 E b.L q.~ ~ w.t p P S 3 l T E q Y 6 d e y t l > A j s j s q O.~ k 3 X.Q Y E M Q 0.1 M b.d.j l B G A U ",
"3 0 W #.F U z z *.E t.*.j h.4.~ G I #.E a > <.c a J M.=.7 > 0 B f.~ E U s & q 9.A m t x <.z z ~ G U E E A L A E @.8.f.d p U L L ",
"x y * v ! G r ! E U E | U 9 G *.U ~ ! 8 s l s q S j.W r.j e D k.r.i.z.w.U 6 s U v.L y t c & r k L @.U N U ; Q t.L B U A t T @.L ",
"<.c y & M F x +.L E Y U f.e d =.G <.M y G l & d r.^ S U Q M B P P m m E A d B A M w.U a $ x B 3 l E L G , p t.t.T B L 9.t E G - ",
"G u y t $ # N h.L ( Q Q D l y c ! I t M z.G d ~ n.E C P *.j l T X.m A E N p A Y c ! B.>.l <.G d q U @.J : m L T P <.C ,.C 6 - q ",
"c c G p.A , Z ] ] K L :.s l M d <.B 2 >.~ 6.d ~ ^ B G E W B w E y.F R L t j 6.m x ~ X.~ y 6.a.M 2 l @.p j d j E U w.D ~ A , m | ",
"v * >.a.>.N 9 m A I ,.C t l e 3 G q t >.<.<.~ B ~ U G S ~ G d G I E L F s s ! I B x G x z ~ E a.B , L 6 d A p N E U ~ M t m X.6.",
"u k E ~ 9.E p > A E 6.m 9 7 ^ S $ : ~ 9.U u.E z G W ~ G v <.B S %.I E %.x N G F F G G t L L v 6.,.C - j Y j s j l Y E 0 p @.X.L ",
"B x P E E X.P 0 p K A d l B z.G 2 G ~ G >.X.} 0 m B B >.W a l W X.4.#.F z U ! m I ~ G 3 ~ ~ A L U E , L k.d t m G L j ; *.g.L B ",
"B j w.} Q T <.A * U B 0 t >.M 9.A g.Q L h.E 8.A z A N P w e l D U ~ U A z z F x G ! j K c.U _ L X.m m G Q | x e U E - N u.E U @.",
"b L / U Q E Q y w t s 7 >.U G #.A l T G } f.@.E d F ~ d < l v S E F E G y 1 6 G U N p A } N A o.A q m L M ,.Y > m s s j u.E x L ",
"b ) E O.A M d p m 1 & G X.F ~ U T e E E @.q.w.L q I ~ : l d u ; - - : % s z > r U B 6 A +.L Y ' j q E G D A 8.U @ , l p G 9.G E ",
"V x.H J ^ P e l c k c ~ R E R E | m M 8.3.U L t j t s r k r.&.a t C q q j z z * B B 9 m R L L 6.l p T A L N E 8.d m f q t u.r.~ ",
"h O.d.d.E M t d 6.~ k F A K A R J T e J r. .< i C ; 7 l r.r.Q S x d S M r.Q y e & * p 2 s o.T P e J T m J L J Y m O.A j e <.<.~ ",
"4 i O.L T M 8 G A E F r ] b / R r.f 5 S 0.c e l k i l n.r.D ^ D a B a k P r.z.~ M s x t @ V T T q | | B P D ` M f 5.b.n d L ~ <.",
"_ , 5 O.~ G y E L A U , K L A U C 7 e d J < n &.b.S g.| D T P D x d e S M B U ^ =.p 6.J s 1 g c s m E T ` D T g 5.P X.E p s r.>.",
"0.5.q 9 ~ d c ~ A E E p g o.R I 7 c M > % S d.=.=.M L Y T J O.T d u a D G k D x A s *.v.t.m - 1 i 6 j r.0.J g j 5.E N w.x x Q x ",
"B x M 1 , 8 ~ B Y l L ~ q G 6.k w v v y S n.j.W U x b s.O.` s.R k c c W ~ S ~ G V L &.0.k.f.A w d s : P d.U 6 j D L ,.} &.p p - ",
"G x l x 6 G L z L @.Q A q B G 1 t k G S r.r.U r.*.| j J s.R R A l D D U G G Q P n Y L E U r.r.l x q 9 l E L V U A L Q E | C % f ",
"c k x P m E } m L g.I G s 9 y y v W c.G d ~ =.| 0.Y j o.R Y 6.! c k w Q Q M P D g L Y X.=.E P c a.G s + x s j X.P M Y L M L n Q ",
"W t B t.U 6 A E b d x z z 3 * G N.p.~ x t U U M E w.b L J E #.F x y M T S D A J g E L D X.~ u B p.a.L t > % d T E L D n i 4 Y d.",
"c y F v } d 0 R V V C 5 d y B n.p.W ;.E p B L C ~ y.r m F F F # y G S v Q U S V g ` C T T M a B I G p.6.j y t q L } G L 0 f *.R ",
"d d #.t ~ 6., N t.l e p M 9 B G U F I 6.N E L I B ~ x m G z + y d u 3 $ l =.C g V ` D D Q m y U G E c 6.E c F , s %.N m : G 5.A ",
"d G #.m x w.x r E N , i B d x L I ] { +.j _ 8.M B >.k r F $ x d k y c t X 9 T s L 0.T ` *.A e r.L G P X.G B d m 6 A m q j T A A ",
"t U L F E U w.8 M q 9 M f.D d *.R K #.6.Y L | | m r r s $ k 3 v k k t M k : - s i d 0.` 0.c W E P ~ E ~ j G ,.B t e m q T Y } I ",
"s o.} _ L m 8.x & - M 6.U G e D R E E E V C b.A + 7 c k x d k c Q S ^ D c M q t s % : A g.H C P G E ` ` g O.>.X.e : , j L G E G ",
"H w.o.+.m C m z 9 e B I ,.E n V R o.L g.R 6 > # 3 r U I y.v G =.a.r.n.n.c c N.a.m m > o d C P D n @.g.C 7 Q G U E t : r q A B L ",
"h K s.E :.z 6 x c 6.G x P @.A m E *.w.j 6 j 9 N F X.z.Z.W c p c G D W U c G r.z.v.f.P m ; 5 i J o.A ` m s U m M <.G v d , G U B ",
"j 6 ( R k.m 2 N m G F G L A C s T X.D # g N g n 6.p.y G ! t s B S =.P G e M B P D U c d L U 0 5 U Y Y j Q Q j Q B ~ d c t d L A ",
"b.e f Q T j t j t A N m _ L ( p G D > x l <.#.j A ~ A L E G M C I E :.o.L L 6.X.~ Y D l g.g.V # 8 ! B d ,.M A L A G L z k 9 G G ",
"J =.7 T U 9 j ~ C f ` J _ H A s t 3 y G n.>.B c D ,.A ~ 8.C m A m L ] q.h _ k.E @.} m N 8.X.} L - d c s w.U L T G d G ! t 3 G G ",
"Q Q e a B 1 L u.k.9 R L U H K m - d ~ a.Q ~ P t p L m ~ 6.D D E L I A E d L } E E } s l | Q L 0.E > & B E G G L A x U ! F 2 q F ",
"n l D 1 - l >.B U d s A Y E 0 q M M a.G U ~ 9.p d B E Q G Y l U d o.w.L j } X.E ~ f.A C | w.Y E E j t j A L A T m p #.z W B & > ",
"c i l l e W ~ P L A p L E p # d l j U 8.Q L 8.A d ! G <.P S S Q %.~ <.E m 0.g.| } } h E } L R U d s G s o A D A s m D A W I q ~ ",
"M e y l G G P P L Y d X.L # z 6.L m l ~ 6.U n.U j L G E T S g r.:.#.~ <.s 6.@.Q X.6.m Y E _ E } x 0 i.z.p - G G m L L L G >.B B ",
"i e J k ~ B A G h.f.j x - 2 E Y U n s D :.~ P P 9 D W U D a 7 1 7 2 3 , s d U U :.} A E o.} L E c d I E *.p % N j 6.A C P G G m ",
"e c n a B P x G u.U j # q ~ U m U d i E B =.E ~ 9 B l 7 1 3 D 3 < 7 > t t # > , C d b o.L Y 6.H t G >.G g.T p + j U A G I U I q ",
"y y e p 1 G M ~ E L D j L <.m d 8.j 9 N Y *.~ U r # & < w m a d <.i.z.^ d l p 1   - j @.~ ! U V m #.w.C Q u.G t G W U w.G ~ q x ",
"a S Q g t M G =.| *.s j t.l N C E E d A m ,.m - c t x P n.G c F.<.a.j.<.l <.V.9.M m m # L 8.] j d ,.X.U B G m c y G I X.~ d 6 m ",
"0 J r.S d 3 <.M Q m 0 m C E G m A } d j Y j # p s E z.>.<.P G G B P U L e 9.B.k.u.~ x 7 o m u.m d 6.L B G F r t > t F G ! m p x ",
"g &.c Q t q ~ ~ D # j m j @.M G U I h q j > q l P i.U L Q M t P E ,.~ Q x Y m A ,.9.F G j o q r U u.L m I ~ d d G , a ~ F d j ~ ",
"E 9.U E ,.r N ~ 1 A ` s e Q C T D M U - - B i.r C U N | 6.Q m E P f.Y V x U E E Q S j ~ B.l 1 e E ,.F B ~ M + z z.G # >.m , Q *.",
"~ | D G =.M p l q d.@.M f f J P S G t M G f.~ G m X.L L Q D p A Q E ~ D m L m G ~ D l G j.n.W l p U E N ~ c m G P G t & s d f.E ",
",.U L E B U > - Y t.J ` q q A D P < e W M.G s G p ~ T L T A s Y U w.@.U m L *.Y P G l W G r.f.W 9 , E B ! y 9 <.l G G - - Y Q E ",
"f.| L E Y M N N s.O.E P g 0 V M 1 1 G z.W E A c d P E E M C m Q h._ Q Q x x B 8.^ G d ^ ^ M P k.G 7 6 I G y d I G B u.x q Q E A ",
"5.*.*.A Y 9 p 6.` Y r.X.G 2 m q , B ~ I G P B U d N L E A T s m Z U E E M P G =.G x V ~ L J R Q d M $ w n e i.E F j F :.i n r.Q ",
"A Y *.d.L > D h.E U G G ~ x & : G B t U G P P ~ x j A L ` E V L Y E ~ G d <.U S E c D Q 5.Q L Y l M M < . m E W ~ x z y.M e L =.",
"s w.Q } p 6 m @.f.N L B X.x - P f.E 8 B <.~ 6.A U x A T E 0 i 9 & * , # t B W G f.D M *.d.E ` Y p j.B.U e D ~ 6.} A G d e n e E ",
"7 D | L q j 1 A n.U 8.T M B v ~ m G j A 6.~ ~ ~ A p M q & % M 7 1 t 3 s t * & > U k T Q T d.O.g t Q &.9.d j ~ ~ R L A q m g a S ",
"g 7 k.D q m 6 s E } h.w.j > E X.8.! A N L @.L B.U 2 + > m p d Q N z k #.x t d 3 % 3 ,.,.O.*.5.g j T h.~ 9.0 q 6.B.E G t d P a e ",
"m , V p A *.m q L E U ~ > F z.A A R m 6 j F ~ C : p e D d.g.n.z.I s W p.X.~ z.G 3 d e T E ` E i _ U A U X.Y , j X.} p q G n.D 1 ",
"w.m % , @.t.U p d 6.U q d f.X.G m A } p L h.j - 6 l g E t.&.i.^ M d G E F W q.! x s 3 & m =.Q q E L R L B :.j 6 } U 6 p a.^ Q y ",
"| } d m Q G b.d 3 Y Y 9 m A U E E L A B m N & d 6.A N m M P U D x t v B I G G y j r.V.P - 0 s m E ( A U L p m q M U t U P U ^ l ",
"| u.s D *.U r.8., 9 q i q m U L 9.G L Z > - m X.@.} p d Q D Q U v z k G B M Q s l E ,.z.G , & P ( 3.} } } s m B ; > B N.P B 9.U ",
"| E C Q E | E f.6.> > *.C 6 C m E ~ z q p m f.,.N U m p T D D T B y G B G B D A c P X.9.v.P c P L o.6.3.A 6 E *.s q i.E G G U :.",
"G B d ~ E | @.6.} g m b.E 9 m ~ B >.t 7 j E G Y D } M l M D D U ~ x B <.W G B p j L } D ! k.t > m E G U N p E k.L A ,.~ U #.G U ",
"U - Y h.~ A U E m s *.f.@.m , U Q P > k N A m A m D C A *.U } 6.G B G #.w.B T B x F E A U v x t o j ! @.d L o.T ~ j U U #.~ L C ",
"x 6 D E U U ~ | q N f.A Q E 7 A =.1 y M s d E G L Y m 6 R R A 8.U D U X.L E L h G Y L L ! z t d p 2 ! R 6 L k.L } L q @.I @.R K ",
"s M 2 B A l 6.m 6 0.t.*.N 8.M j W 1 =.M 2 k ~ L A U ) j L h.Y @.W 7 L 9.E J Y m L C U E ~ c 3 >.k.p 1 d e *.Q *.E h.i A o.] ] s ",
", c s 2 B j Q 9 l f.v.E t T d.& > D z.^ e 2 G G E Y O.m V _ V q 7 1 > 6 p H A j K @.B U B x d ~ >.B , - L E E h.E ` H 8 ' ] b 6 ",
"x s x > p L L 6 M Y E 6.L L E p B z.U P c 9 P E L w.| V = = - ; f l e : : - > d Y L Y U A q B ~ Y | m C | U } | @.L Z q L I q d ",
"~ r.k M < P D 7 Y A I 8.A U j j s.` L 6.G t v G U ~ 9 l p g A =.S d D W c l l e 3 J Q P B p } y.%.q.] q K %.E } Y M p j j L 7 y ",
"G W b.M i 7 , l 9 E U A X.C 7 H o.J L 0.6.y c E S < * y P &.n.k.P d ^ n.j.&.T S w < p U K C o.R :.R x.A 6 w.,.E @.p 3 j 3 * s ~ ",
"=.U d.j.d - p C 9 , <.Y U j 7 } _ } 5._ >.B t v * t B G d.O.R C P c D G P &.z.W l e & k 9 I @.I ,.E X.6.9 p E E J 6 d *.6 , E <.",
"=.Q ^ r.h.l A m.C 6 m t.C 9 s M E R w.} U E 2 . y M t D C D Y J E k D Q D c D c d d t % 6 G m T ! E U q s 6 U ~ s 1 E V.A l #.A ",
"n.E *.U g.N A E *.E s *.S % M M L } 9.h.~ B r s &.S , M A Q s.Y D t L A F P L B k g.*.0 m B N I T G M t g d s g.6 d 8.~ } N } C ",
"<.Y L | A j Q C O.d.e q a f D e j h.U >.i.q q W Q *.A g T ` 5.T _ z A ~ ~ E ~ B x P 8.Q 6 q j B P G p 1 d m 1 g 6 E E x E m A U ",
"U L | 8.s m h.} P k.O., < n.l e q U L G s 7 ! z.A U T e J T 5.s.Y x N #.E A R j m L E f.| 0 6 Y <.G e l =.u.q # G t.U R w.K s o.",
"E Y R 6.s ! w.@.E ` Z.l l j.Q e p B P m > B z.~ D =.Y i J T ` 5.o.q m E X.w.L d | r.E Q ~ D ; L a.B 7 G <.9.d.N X.E Y G } _ h A ",
"E B m L d 6.E 6.| ,.Q s E X.k.L t t I 2 3 6.! U ~ X.w.6 A E o._ T p Q A A } } j ,.,.f.E U L j 6 Q S e ^ 9.E L l ,.} X.@.L 3.s h ",
"m E E d r X.U @.E E L l E ~ E X.x 2 r r k ~ 6.~ ~ @.f.m A g.O.d.A x } U I @.] j @.! E E E t j q > e S =.A s <.q x ~ ,.g.L _ H d ",
"7 d L p L ! X.! 6.,.s L @.E X.@.y.r 1 d s x h.%.9.w.v.A J s.n f > l 1 3 j U L C X.9.~ E F q c x 2 e Q m L m C A q L N X.| w.s 6 ",
"B : N z z m #.F Q Q 0 8.%.A :.A W G x F z t L 8.L f.@.R 6 = 6 5 l B l 7 ; - : E ~ ~ ~ Y C s B E x E | A U j G X.q p E U h.; p 6 ",
"x y & z r * F ! M M V h.o.' 6.Y F m F y.U z j E F 6.%.s > s k.} e l k P i.d 6 q :.A A ~ p q c ,.L t A A F A G :.M p U T d r d M ",
"c.#.s c z r : I *.N j Y 4.U A I G 2 ~ k.! 8 p I ] #.i q V b.*.@.c d k D P r.>.8 6 } L Y q j G z Y 6 p A L A L U j q m B 9 p m D ",
"#.F.F G a.F 9 * T t 4 i y.( K @.d s E E w.z 8 L #.r , k.v.U X.9.k S k W G y.N.~ 1 2 E G d E M x L m 6 h N L A > p 6 l , j L n.g.",
"! I F F { c.! k & e d - R k.@.Z , ,.U U R 6.2 N m , s h.X.E T X.M k B U W W ,.p.U 2 0 U , u.9.L G } 6 q C U p 0 L d o p f.~ l f.",
"s.L i U m L f.8.x s z 8 8 #.#.x N _ N A m E Q > % l l M | ` 0.5.A s B ~ G U | 8.x x & & G j.! ~ U E x s =.M < d l l s ,.h.L h 3.",
"o./ s L Y } D X.F G G z , v a.9 R K R A B G r.y d e l D =.O.E _ E d X.Q A Q } U M t x s =.E Y L P E D 2 =.e 3 y Q Q m T A V R H ",
"A p R L B E E Q x :.y.v y , 0 0 ] E B A | B l p r.P d l | *.o.J U 9 0.O.O.E 5.A 9 P a.t A Q L I M x x q , t x ~ r.P p A J m L Y ",
"E b K L m %.,.E p 9.W p.G t & d F X.E K E B e N D Q l m @.C.E L *.M Q O.d.O.@.M k ~ <.G 6 N A E E G 9 m , t i.Q B 9.l N ` h R ' ",
"] s j E E A G j j U @.X.M.Y A l > b X.Y T d 1 Q L Q n p T Q <.P S w T ^ r.J ` l B X.F a.z 2 A E E t q x B <.B c L =.M p } H m E ",
"N d 8.} U ,.U t C :.@.E b.t.V l m & l A E 6 Y R A Y Y s L L z.y $ a < k &.U E s B B { <.F 7 K ' x , v d t x j F G U L d L A E K ",
"B 6 } X.P Q ,.p L u.E ,.` _ m D d y 7 ~ r q ( R R R 8.J l W k < S c e $ i &.E j G ! F 6.a.7 s q.t 0 z :.p C U N ~ C Y B } } U G ",
"% s 6 U L U | d E U ~ x ` T j t.U x 3 G s L +.o.R C L j l e O l k e c d - e M A X.G U X.6.#.8 I 2 x 6.9.L m U L G ~ E d U %.A 6 ",
"l x * & q I G B w.U 8.U } d A E =.S d ; 0 H H L E H V } ; 6 k y y y e e k 1 = T U E G 6.b.Y 7 @ 0 X.Q A E j A A x E k.x U Y 2 & ",
"k.u.E m * : 7 0 t.5.D | R g Y Q =.j.U q q q J H Y E H A d j p l k k v M D n n ` ~ F G P f.i j i N 9.G E L > L g.U Y ,.d : # t x ",
"~ <.V.i.x t r t n 6.A } L 6 L ` G Q g.E J 6 j ` Y Y } q j Q z.U k c a G M.C i 0 ! U ,.#.N 7 m D E G L L h.d m m F Z 2 p t 7 c <.",
"c U w.E x B 8.t > N 6.U n m / V M r.w.D N C > T / L M q P r.<.~ c y x ~ O.d.Q i N %.~ X.q n e s A m E A E _ j Y A ; , t A j B =.",
"U E U A j A p.L 6 , j w.r B ,.E e *.L 6 e m l l m A , ~ f.E F U d k B ^ w.o.g.s.q L ! N w M l e B L E L H _ j 4.1 6 j I n.M a G ",
"T A L D x L A y.h.L # j s B L L n T ` e Q D e p X.t j y.L Y ! E l y B <.} ' A g.z > p.B 1 G n.l d J H V E ] i , 2 b E k.^ M y U ",
"P U T L z U U L E c.d @ q 3.R Y A T i T Q Q c < l 2 x %.8.4.8.R B c G B A s.s.R z 2 M t c r.r.G 9 Y A L H L h 9 U } U r.W M l d ",
"E E E N F X.U F m } j x m N U j H H 7 L D G v 3 O x x x :.#.R 4.U y B T H 3.] A 8 z + 7 r.P M P e C b A Z - h j U ~ B D c S 9 y "
};
